<mxfile host="app.diagrams.net" agent="Mozilla/5.0 (Windows NT 10.0; Win64; x64) AppleWebKit/537.36 (KHTML, like Gecko) Chrome/130.0.0.0 Safari/537.36" version="24.7.17">
  <diagram name="Page-1" id="e7e014a7-5840-1c2e-5031-d8a46d1fe8dd">
    <mxGraphModel dx="1311" dy="656" grid="1" gridSize="10" guides="1" tooltips="1" connect="1" arrows="1" fold="1" page="1" pageScale="1" pageWidth="1169" pageHeight="826" background="none" math="0" shadow="0">
      <root>
        <mxCell id="0" />
        <mxCell id="1" parent="0" />
        <mxCell id="iQKqXKm-dBMWi2SqVVL5-41" style="edgeStyle=orthogonalEdgeStyle;rounded=0;orthogonalLoop=1;jettySize=auto;html=1;" edge="1" parent="1" source="iQKqXKm-dBMWi2SqVVL5-43">
          <mxGeometry relative="1" as="geometry">
            <mxPoint x="1030" y="130" as="targetPoint" />
          </mxGeometry>
        </mxCell>
        <mxCell id="iQKqXKm-dBMWi2SqVVL5-42" style="edgeStyle=orthogonalEdgeStyle;rounded=0;orthogonalLoop=1;jettySize=auto;html=1;entryX=1;entryY=0.5;entryDx=0;entryDy=0;" edge="1" parent="1" source="iQKqXKm-dBMWi2SqVVL5-43" target="iQKqXKm-dBMWi2SqVVL5-55">
          <mxGeometry relative="1" as="geometry" />
        </mxCell>
        <mxCell id="iQKqXKm-dBMWi2SqVVL5-43" value="Repositor" style="shape=umlActor;verticalLabelPosition=bottom;verticalAlign=top;html=1;outlineConnect=0;" vertex="1" parent="1">
          <mxGeometry x="1140" y="130" width="30" height="60" as="geometry" />
        </mxCell>
        <mxCell id="iQKqXKm-dBMWi2SqVVL5-44" style="edgeStyle=orthogonalEdgeStyle;rounded=0;orthogonalLoop=1;jettySize=auto;html=1;" edge="1" parent="1" source="iQKqXKm-dBMWi2SqVVL5-47">
          <mxGeometry relative="1" as="geometry">
            <mxPoint x="880" y="130" as="targetPoint" />
            <Array as="points">
              <mxPoint x="830" y="160" />
              <mxPoint x="830" y="130" />
            </Array>
          </mxGeometry>
        </mxCell>
        <mxCell id="iQKqXKm-dBMWi2SqVVL5-45" style="edgeStyle=orthogonalEdgeStyle;rounded=0;orthogonalLoop=1;jettySize=auto;html=1;entryX=0;entryY=0.5;entryDx=0;entryDy=0;" edge="1" parent="1" source="iQKqXKm-dBMWi2SqVVL5-47" target="iQKqXKm-dBMWi2SqVVL5-54">
          <mxGeometry relative="1" as="geometry">
            <Array as="points">
              <mxPoint x="830" y="160" />
              <mxPoint x="830" y="220" />
            </Array>
          </mxGeometry>
        </mxCell>
        <mxCell id="iQKqXKm-dBMWi2SqVVL5-46" style="edgeStyle=orthogonalEdgeStyle;rounded=0;orthogonalLoop=1;jettySize=auto;html=1;entryX=0;entryY=0.375;entryDx=0;entryDy=0;entryPerimeter=0;" edge="1" parent="1" source="iQKqXKm-dBMWi2SqVVL5-47" target="iQKqXKm-dBMWi2SqVVL5-55">
          <mxGeometry relative="1" as="geometry">
            <Array as="points">
              <mxPoint x="830" y="160" />
              <mxPoint x="830" y="300" />
            </Array>
          </mxGeometry>
        </mxCell>
        <mxCell id="iQKqXKm-dBMWi2SqVVL5-47" value="Administrador" style="shape=umlActor;verticalLabelPosition=bottom;verticalAlign=top;html=1;outlineConnect=0;" vertex="1" parent="1">
          <mxGeometry x="750" y="130" width="30" height="60" as="geometry" />
        </mxCell>
        <mxCell id="iQKqXKm-dBMWi2SqVVL5-48" style="edgeStyle=orthogonalEdgeStyle;rounded=0;orthogonalLoop=1;jettySize=auto;html=1;" edge="1" parent="1" source="iQKqXKm-dBMWi2SqVVL5-49" target="iQKqXKm-dBMWi2SqVVL5-57">
          <mxGeometry relative="1" as="geometry" />
        </mxCell>
        <mxCell id="iQKqXKm-dBMWi2SqVVL5-49" value="Cliente" style="shape=umlActor;verticalLabelPosition=bottom;verticalAlign=top;html=1;outlineConnect=0;" vertex="1" parent="1">
          <mxGeometry x="1140" y="420" width="30" height="60" as="geometry" />
        </mxCell>
        <mxCell id="iQKqXKm-dBMWi2SqVVL5-50" style="edgeStyle=orthogonalEdgeStyle;rounded=0;orthogonalLoop=1;jettySize=auto;html=1;entryX=0;entryY=0.5;entryDx=0;entryDy=0;" edge="1" parent="1" source="iQKqXKm-dBMWi2SqVVL5-52" target="iQKqXKm-dBMWi2SqVVL5-56">
          <mxGeometry relative="1" as="geometry" />
        </mxCell>
        <mxCell id="iQKqXKm-dBMWi2SqVVL5-51" style="edgeStyle=orthogonalEdgeStyle;rounded=0;orthogonalLoop=1;jettySize=auto;html=1;" edge="1" parent="1" source="iQKqXKm-dBMWi2SqVVL5-52" target="iQKqXKm-dBMWi2SqVVL5-57">
          <mxGeometry relative="1" as="geometry" />
        </mxCell>
        <mxCell id="iQKqXKm-dBMWi2SqVVL5-69" style="edgeStyle=orthogonalEdgeStyle;rounded=0;orthogonalLoop=1;jettySize=auto;html=1;entryX=0;entryY=0.5;entryDx=0;entryDy=0;" edge="1" parent="1" source="iQKqXKm-dBMWi2SqVVL5-52" target="iQKqXKm-dBMWi2SqVVL5-68">
          <mxGeometry relative="1" as="geometry" />
        </mxCell>
        <mxCell id="iQKqXKm-dBMWi2SqVVL5-52" value="Cajero" style="shape=umlActor;verticalLabelPosition=bottom;verticalAlign=top;html=1;outlineConnect=0;" vertex="1" parent="1">
          <mxGeometry x="750" y="420" width="30" height="60" as="geometry" />
        </mxCell>
        <mxCell id="iQKqXKm-dBMWi2SqVVL5-53" value="Pedido a proveedores" style="ellipse;whiteSpace=wrap;html=1;" vertex="1" parent="1">
          <mxGeometry x="890" y="90" width="120" height="80" as="geometry" />
        </mxCell>
        <mxCell id="iQKqXKm-dBMWi2SqVVL5-54" value="Reporte de pagos semanal" style="ellipse;whiteSpace=wrap;html=1;" vertex="1" parent="1">
          <mxGeometry x="890" y="180" width="120" height="80" as="geometry" />
        </mxCell>
        <mxCell id="iQKqXKm-dBMWi2SqVVL5-55" value="Control de stock" style="ellipse;whiteSpace=wrap;html=1;" vertex="1" parent="1">
          <mxGeometry x="890" y="270" width="120" height="80" as="geometry" />
        </mxCell>
        <mxCell id="iQKqXKm-dBMWi2SqVVL5-56" value="Control de productos" style="ellipse;whiteSpace=wrap;html=1;" vertex="1" parent="1">
          <mxGeometry x="890" y="360" width="120" height="80" as="geometry" />
        </mxCell>
        <mxCell id="iQKqXKm-dBMWi2SqVVL5-57" value="Compra-Venta" style="ellipse;whiteSpace=wrap;html=1;" vertex="1" parent="1">
          <mxGeometry x="890" y="450" width="120" height="80" as="geometry" />
        </mxCell>
        <mxCell id="iQKqXKm-dBMWi2SqVVL5-58" value="Control de Stock" style="ellipse;whiteSpace=wrap;html=1;" vertex="1" parent="1">
          <mxGeometry x="1260" y="240" width="120" height="80" as="geometry" />
        </mxCell>
        <mxCell id="iQKqXKm-dBMWi2SqVVL5-59" value="Pedido a Proveedores" style="ellipse;whiteSpace=wrap;html=1;" vertex="1" parent="1">
          <mxGeometry x="1260" y="150" width="120" height="80" as="geometry" />
        </mxCell>
        <mxCell id="iQKqXKm-dBMWi2SqVVL5-60" value="Control de Productos" style="ellipse;whiteSpace=wrap;html=1;" vertex="1" parent="1">
          <mxGeometry x="1260" y="340" width="120" height="80" as="geometry" />
        </mxCell>
        <mxCell id="iQKqXKm-dBMWi2SqVVL5-61" value="Reporte de pagos Semanal" style="ellipse;whiteSpace=wrap;html=1;" vertex="1" parent="1">
          <mxGeometry x="1260" y="60" width="120" height="80" as="geometry" />
        </mxCell>
        <mxCell id="iQKqXKm-dBMWi2SqVVL5-62" value="Ventas" style="ellipse;whiteSpace=wrap;html=1;" vertex="1" parent="1">
          <mxGeometry x="1260" y="440" width="120" height="80" as="geometry" />
        </mxCell>
        <mxCell id="iQKqXKm-dBMWi2SqVVL5-63" value="Cliente" style="shape=umlActor;verticalLabelPosition=bottom;verticalAlign=top;html=1;outlineConnect=0;" vertex="1" parent="1">
          <mxGeometry x="570" y="140" width="30" height="60" as="geometry" />
        </mxCell>
        <mxCell id="iQKqXKm-dBMWi2SqVVL5-64" value="Empleado del Super (cajero)&lt;br&gt;" style="shape=umlActor;verticalLabelPosition=bottom;verticalAlign=top;html=1;outlineConnect=0;" vertex="1" parent="1">
          <mxGeometry x="570" y="250" width="30" height="60" as="geometry" />
        </mxCell>
        <mxCell id="iQKqXKm-dBMWi2SqVVL5-65" value="Administrador" style="shape=umlActor;verticalLabelPosition=bottom;verticalAlign=top;html=1;outlineConnect=0;" vertex="1" parent="1">
          <mxGeometry x="570" y="350" width="30" height="60" as="geometry" />
        </mxCell>
        <mxCell id="iQKqXKm-dBMWi2SqVVL5-66" value="Repositor" style="shape=umlActor;verticalLabelPosition=bottom;verticalAlign=top;html=1;outlineConnect=0;" vertex="1" parent="1">
          <mxGeometry x="570" y="460" width="30" height="60" as="geometry" />
        </mxCell>
        <mxCell id="iQKqXKm-dBMWi2SqVVL5-68" value="Ventas del dia - cierre de caja" style="ellipse;whiteSpace=wrap;html=1;" vertex="1" parent="1">
          <mxGeometry x="890" y="550" width="120" height="80" as="geometry" />
        </mxCell>
      </root>
    </mxGraphModel>
  </diagram>
</mxfile>
